<svg xmlns="http://www.w3.org/2000/svg" xmlns:xlink="http://www.w3.org/1999/xlink" width="500" zoomAndPan="magnify" viewBox="0 0 375 97.5" height="130" preserveAspectRatio="xMidYMid meet" version="1.0"><defs><g/><clipPath id="a7e83b213f"><path d="M 7 12 L 72 12 L 72 97.003906 L 7 97.003906 Z M 7 12 " clip-rule="nonzero"/></clipPath></defs><g clip-path="url(#a7e83b213f)"><g fill="#ffffff" fill-opacity="1"><g transform="translate(2.193769, 100.158217)"><g><path d="M 69.402344 -1.621094 C 64.910156 -29.585938 61.414062 -57.796875 58.167969 -86.007812 L 46.683594 -87.503906 C 44.8125 -82.886719 43.191406 -78.140625 41.691406 -73.398438 C 40.320312 -68.65625 38.945312 -63.910156 37.824219 -59.167969 C 36.574219 -54.425781 35.449219 -49.679688 34.328125 -44.9375 L 33.578125 -41.566406 L 32.828125 -43.691406 L 29.085938 -56.421875 C 26.464844 -64.910156 24.089844 -73.398438 21.59375 -82.011719 L 9.863281 -81.011719 C 6.992188 -55.050781 7.488281 -29.460938 5.117188 -4.492188 L 16.976562 -3.246094 C 18.226562 -16.226562 18.722656 -29.085938 19.347656 -41.816406 C 19.347656 -43.441406 19.472656 -44.9375 19.472656 -46.4375 L 21.34375 -40.195312 L 22.71875 -35.949219 L 24.714844 -29.585938 L 26.714844 -23.34375 L 28.710938 -17.101562 L 40.195312 -17.476562 C 40.820312 -19.722656 41.316406 -22.09375 41.941406 -24.339844 C 42.441406 -26.714844 42.941406 -29.085938 43.566406 -31.457031 L 45.9375 -42.191406 C 47.058594 -46.933594 48.183594 -51.554688 49.429688 -56.171875 C 49.429688 -56.421875 49.554688 -56.671875 49.554688 -56.796875 C 51.929688 -37.824219 54.550781 -18.722656 57.546875 0.25 Z M 69.402344 -1.621094 "/></g></g></g></g><g fill="#ffffff" fill-opacity="1"><g transform="translate(76.961404, 100.158217)"><g><path d="M 48.058594 -43.316406 C 47.683594 -46.1875 46.683594 -48.808594 45.3125 -51.304688 L 44.8125 -52.179688 C 44.5625 -52.425781 44.4375 -52.800781 44.1875 -53.175781 C 43.691406 -53.800781 43.316406 -54.300781 42.816406 -54.925781 C 41.691406 -56.046875 40.570312 -57.171875 39.320312 -58.042969 C 38.074219 -58.917969 36.574219 -59.667969 35.203125 -60.167969 C 34.453125 -60.417969 33.703125 -60.667969 32.953125 -60.914062 C 32.207031 -61.039062 31.332031 -61.164062 30.707031 -61.289062 C 28.085938 -61.539062 25.464844 -61.539062 22.71875 -61.164062 C 21.34375 -61.039062 19.972656 -60.667969 18.597656 -60.167969 C 17.101562 -59.667969 15.480469 -59.042969 13.980469 -57.796875 C 11.734375 -55.921875 9.738281 -53.675781 8.363281 -51.179688 C 6.992188 -48.683594 6.117188 -45.9375 5.492188 -43.441406 C 4.992188 -40.945312 4.742188 -38.074219 5.117188 -35.203125 C 5.367188 -32.332031 6.242188 -29.460938 7.863281 -26.835938 C 9.363281 -24.214844 11.484375 -21.96875 13.980469 -20.347656 C 16.601562 -18.597656 19.222656 -17.601562 22.09375 -16.976562 C 24.839844 -16.476562 27.835938 -16.351562 30.832031 -16.976562 C 33.703125 -17.601562 36.574219 -18.847656 38.945312 -20.597656 C 41.316406 -22.34375 43.191406 -24.589844 44.6875 -26.960938 C 46.1875 -29.335938 47.308594 -31.957031 47.933594 -34.828125 C 48.433594 -37.574219 48.558594 -40.445312 48.058594 -43.316406 Z M 36.199219 -37.324219 C 35.824219 -35.949219 35.324219 -34.578125 34.578125 -33.328125 C 33.828125 -32.082031 32.828125 -31.082031 31.832031 -30.332031 C 29.707031 -28.710938 27.210938 -28.210938 24.339844 -28.835938 C 21.59375 -29.335938 19.472656 -30.832031 18.226562 -32.953125 C 17.601562 -33.953125 17.101562 -35.203125 16.976562 -36.574219 C 16.851562 -37.949219 16.976562 -39.445312 17.226562 -41.066406 C 17.976562 -44.3125 19.222656 -46.683594 21.34375 -48.433594 C 21.46875 -48.433594 21.84375 -48.683594 22.46875 -48.933594 C 22.96875 -49.058594 23.71875 -49.183594 24.464844 -49.308594 C 25.964844 -49.554688 27.710938 -49.554688 29.210938 -49.308594 C 29.460938 -49.308594 29.585938 -49.308594 29.707031 -49.308594 C 29.832031 -49.308594 30.082031 -49.308594 30.207031 -49.183594 C 30.457031 -49.183594 30.707031 -49.058594 30.957031 -48.933594 C 31.457031 -48.808594 31.957031 -48.558594 32.457031 -48.183594 C 32.953125 -47.808594 33.328125 -47.433594 33.703125 -47.058594 C 34.203125 -46.5625 34.453125 -46.1875 34.828125 -45.4375 C 35.574219 -44.1875 36.074219 -42.816406 36.324219 -41.441406 C 36.449219 -40.070312 36.449219 -38.695312 36.199219 -37.324219 Z M 36.199219 -37.324219 "/></g></g></g><g fill="#ffffff" fill-opacity="1"><g transform="translate(130.509504, 100.158217)"><g><path d="M 42.691406 -35.203125 C 42.566406 -37.199219 42.441406 -39.195312 42.191406 -41.316406 C 42.191406 -42.316406 42.066406 -43.316406 41.941406 -44.3125 L 41.691406 -45.8125 L 41.691406 -46.5625 L 41.566406 -47.433594 C 41.191406 -49.679688 40.695312 -52.054688 39.570312 -54.550781 C 39.070312 -55.671875 38.445312 -57.046875 37.574219 -58.167969 C 36.699219 -59.417969 35.699219 -60.667969 34.328125 -61.664062 C 33.578125 -62.164062 32.953125 -62.539062 32.207031 -62.914062 C 31.457031 -63.289062 30.457031 -63.660156 29.585938 -63.910156 C 27.710938 -64.410156 25.839844 -64.410156 24.214844 -64.160156 C 22.46875 -63.910156 20.972656 -63.289062 19.597656 -62.539062 C 18.847656 -62.164062 18.226562 -61.789062 17.601562 -61.289062 C 17.476562 -61.164062 17.351562 -61.039062 17.226562 -61.039062 C 17.226562 -62.414062 17.226562 -63.785156 17.226562 -65.160156 L 5.242188 -65.160156 C 5.242188 -48.433594 5.492188 -31.832031 4.992188 -15.355469 L 16.976562 -14.980469 C 16.976562 -17.226562 17.101562 -19.347656 17.101562 -21.59375 C 17.601562 -28.835938 19.097656 -36.074219 21.097656 -43.441406 L 21.84375 -46.1875 C 22.09375 -46.933594 22.34375 -47.683594 22.59375 -48.308594 C 23.09375 -49.679688 23.71875 -50.679688 24.464844 -51.304688 C 24.589844 -51.554688 24.714844 -51.554688 24.839844 -51.679688 C 24.964844 -51.804688 25.089844 -51.929688 25.339844 -52.054688 C 25.589844 -52.179688 25.964844 -52.300781 26.214844 -52.300781 C 26.464844 -52.300781 26.589844 -52.300781 26.589844 -52.300781 C 26.589844 -52.300781 26.835938 -52.179688 27.085938 -52.054688 C 27.460938 -51.679688 28.085938 -50.929688 28.585938 -49.804688 C 29.085938 -48.683594 29.460938 -47.183594 29.707031 -45.6875 L 29.707031 -45.0625 L 29.832031 -44.3125 L 29.957031 -42.941406 C 30.082031 -42.066406 30.207031 -41.066406 30.332031 -40.195312 C 30.457031 -38.320312 30.582031 -36.449219 30.707031 -34.453125 C 31.207031 -26.960938 31.207031 -19.222656 31.457031 -11.359375 L 43.441406 -11.609375 C 43.191406 -19.347656 43.191406 -27.210938 42.691406 -35.203125 Z M 42.691406 -35.203125 "/></g></g></g><g fill="#ffffff" fill-opacity="1"><g transform="translate(179.06478, 100.158217)"><g><path d="M 40.570312 -58.042969 C 36.449219 -58.167969 32.457031 -58.167969 28.335938 -58.167969 L 28.335938 -65.035156 C 28.335938 -71.152344 28.210938 -77.269531 28.460938 -83.011719 L 16.476562 -83.632812 C 16.226562 -77.269531 16.351562 -71.152344 16.351562 -65.035156 L 16.351562 -58.167969 C 12.609375 -58.167969 8.863281 -58.167969 5.117188 -58.167969 L 4.992188 -46.1875 C 8.738281 -46.0625 12.609375 -46.1875 16.476562 -46.1875 L 16.726562 -28.460938 C 16.726562 -22.46875 16.726562 -16.351562 16.476562 -10.484375 L 28.460938 -9.984375 C 28.710938 -16.351562 28.710938 -22.34375 28.710938 -28.585938 L 28.460938 -46.1875 C 32.457031 -46.1875 36.324219 -46.1875 40.320312 -46.0625 Z M 40.570312 -58.042969 "/></g></g></g><g fill="#ffffff" fill-opacity="1"><g transform="translate(224.749173, 100.158217)"><g><path d="M 31.332031 -27.210938 C 31.207031 -26.714844 30.957031 -26.214844 30.582031 -25.714844 C 30.332031 -25.339844 29.957031 -24.964844 29.707031 -24.589844 C 29.335938 -24.339844 29.085938 -24.089844 28.835938 -24.089844 C 28.835938 -23.96875 28.710938 -23.96875 28.585938 -23.96875 L 28.335938 -23.84375 L 27.960938 -23.71875 C 27.710938 -23.71875 27.585938 -23.59375 27.460938 -23.59375 L 26.960938 -23.46875 C 26.464844 -23.34375 25.839844 -23.34375 25.339844 -23.34375 C 24.214844 -23.34375 23.09375 -23.59375 22.09375 -24.214844 C 20.972656 -24.714844 19.972656 -25.589844 19.222656 -26.589844 C 18.351562 -27.460938 17.726562 -28.710938 17.351562 -29.832031 C 17.226562 -30.082031 17.226562 -30.332031 17.226562 -30.582031 L 17.101562 -30.707031 C 17.101562 -30.832031 17.101562 -30.957031 17.101562 -31.082031 C 17.101562 -31.207031 17.101562 -31.457031 16.976562 -31.707031 C 16.976562 -31.957031 16.976562 -32.207031 16.976562 -32.457031 C 22.09375 -32.828125 27.210938 -33.203125 32.332031 -33.453125 L 44.3125 -33.828125 C 44.3125 -35.078125 44.1875 -36.199219 44.0625 -37.449219 C 43.9375 -38.570312 43.691406 -39.695312 43.566406 -40.820312 C 43.066406 -42.941406 42.566406 -45.1875 41.816406 -47.558594 C 41.441406 -48.683594 40.945312 -49.929688 40.320312 -51.304688 C 40.070312 -51.554688 39.945312 -51.929688 39.695312 -52.300781 L 39.320312 -52.800781 L 39.070312 -53.300781 C 38.570312 -53.800781 38.195312 -54.425781 37.699219 -54.925781 C 36.824219 -56.046875 35.699219 -57.046875 34.328125 -57.917969 C 32.953125 -58.917969 31.457031 -59.667969 29.832031 -60.042969 C 26.464844 -61.039062 23.34375 -60.789062 20.472656 -59.917969 C 18.972656 -59.542969 17.601562 -58.917969 16.226562 -58.167969 C 14.855469 -57.296875 13.730469 -56.421875 12.730469 -55.296875 C 10.609375 -53.175781 9.113281 -50.804688 8.113281 -48.433594 C 7.113281 -46.1875 6.242188 -43.9375 5.742188 -41.441406 C 5.242188 -39.070312 4.992188 -36.574219 4.992188 -34.203125 C 4.867188 -32.953125 4.992188 -31.707031 5.117188 -30.457031 C 5.117188 -30.082031 5.117188 -29.832031 5.242188 -29.585938 C 5.242188 -29.335938 5.242188 -29.210938 5.242188 -29.085938 L 5.367188 -28.460938 C 5.492188 -27.710938 5.617188 -26.960938 5.867188 -26.339844 C 6.742188 -23.46875 8.113281 -20.972656 9.984375 -18.847656 C 11.734375 -16.726562 13.980469 -14.855469 16.476562 -13.480469 C 19.097656 -12.234375 22.09375 -11.359375 25.089844 -11.359375 C 26.464844 -11.359375 27.960938 -11.484375 29.460938 -11.734375 L 30.457031 -11.984375 C 30.832031 -12.109375 31.082031 -12.234375 31.457031 -12.234375 L 32.457031 -12.609375 L 32.953125 -12.855469 C 33.078125 -12.855469 33.328125 -12.855469 33.453125 -12.980469 C 35.078125 -13.730469 36.574219 -14.730469 37.699219 -15.726562 C 38.945312 -16.851562 39.945312 -17.976562 40.695312 -19.222656 C 41.441406 -20.597656 42.191406 -21.84375 42.691406 -23.21875 C 43.191406 -24.714844 43.566406 -26.214844 43.566406 -27.960938 L 31.707031 -28.585938 C 31.582031 -28.335938 31.582031 -27.710938 31.332031 -27.210938 Z M 21.097656 -46.808594 C 21.46875 -47.183594 21.96875 -47.558594 22.34375 -47.808594 C 22.84375 -48.058594 23.34375 -48.308594 23.84375 -48.433594 C 24.839844 -48.683594 25.964844 -48.683594 26.589844 -48.558594 C 27.210938 -48.308594 27.835938 -47.933594 28.710938 -47.058594 C 28.960938 -46.808594 29.085938 -46.5625 29.335938 -46.3125 L 29.460938 -46.1875 C 29.460938 -46.0625 29.460938 -46.0625 29.460938 -46.0625 C 29.460938 -46.0625 29.460938 -46.0625 29.460938 -45.9375 C 29.585938 -45.9375 29.585938 -45.8125 29.707031 -45.6875 C 29.957031 -45.1875 30.207031 -44.5625 30.457031 -43.691406 C 30.457031 -43.691406 30.457031 -43.691406 30.457031 -43.566406 C 26.589844 -43.441406 22.59375 -43.191406 18.722656 -42.941406 C 18.847656 -43.066406 18.847656 -43.316406 18.972656 -43.566406 C 19.597656 -44.9375 20.347656 -46.0625 21.097656 -46.808594 Z M 21.097656 -46.808594 "/></g></g></g><g fill="#ffffff" fill-opacity="1"><g transform="translate(274.178177, 100.158217)"><g><path d="M 44.6875 -30.457031 L 32.703125 -29.585938 C 32.703125 -28.835938 32.578125 -28.085938 32.082031 -27.210938 C 31.707031 -26.339844 30.957031 -25.589844 30.207031 -25.089844 C 28.835938 -23.96875 26.589844 -23.71875 24.464844 -24.464844 C 23.34375 -24.839844 22.34375 -25.339844 21.46875 -26.089844 C 20.597656 -26.835938 19.847656 -27.710938 19.222656 -28.960938 C 17.851562 -31.332031 17.101562 -34.328125 16.976562 -37.449219 C 16.851562 -40.445312 17.226562 -43.691406 18.226562 -46.3125 C 18.722656 -47.558594 19.347656 -48.808594 20.097656 -49.679688 C 20.847656 -50.679688 21.71875 -51.304688 22.59375 -51.804688 C 23.59375 -52.300781 24.589844 -52.550781 25.839844 -52.675781 C 25.964844 -52.675781 26.089844 -52.675781 26.214844 -52.675781 L 27.335938 -52.675781 C 27.585938 -52.550781 27.960938 -52.425781 28.460938 -52.300781 C 29.335938 -51.804688 30.332031 -51.054688 30.957031 -50.304688 C 31.332031 -49.804688 31.582031 -49.429688 31.707031 -49.183594 C 31.707031 -49.058594 31.707031 -49.058594 31.832031 -48.933594 C 31.832031 -48.933594 31.832031 -48.808594 31.832031 -48.808594 C 31.832031 -48.808594 31.832031 -48.683594 31.832031 -48.683594 C 31.832031 -48.683594 31.832031 -48.683594 31.957031 -48.683594 L 43.8125 -49.183594 C 43.8125 -51.179688 43.191406 -52.800781 42.566406 -54.300781 C 41.816406 -55.796875 41.066406 -56.921875 40.070312 -58.042969 C 38.320312 -60.167969 36.199219 -61.789062 33.578125 -63.039062 C 32.332031 -63.660156 30.957031 -64.160156 29.210938 -64.535156 L 28.585938 -64.535156 L 28.210938 -64.660156 L 25.964844 -64.660156 C 25.714844 -64.660156 25.339844 -64.660156 24.964844 -64.660156 C 22.34375 -64.410156 19.597656 -63.785156 17.101562 -62.414062 C 14.605469 -61.164062 12.484375 -59.292969 10.734375 -57.171875 C 9.113281 -55.171875 7.863281 -52.925781 6.992188 -50.554688 C 6.117188 -48.308594 5.617188 -45.9375 5.242188 -43.691406 C 4.992188 -41.316406 4.867188 -39.070312 4.992188 -36.699219 C 5.242188 -32.082031 6.367188 -27.460938 8.738281 -23.09375 C 9.984375 -20.847656 11.609375 -18.722656 13.730469 -16.976562 C 15.851562 -15.230469 18.226562 -13.855469 20.722656 -12.980469 C 23.34375 -12.234375 26.089844 -11.859375 28.960938 -12.109375 C 30.332031 -12.359375 31.832031 -12.609375 33.203125 -13.105469 C 34.578125 -13.730469 35.949219 -14.355469 37.074219 -15.230469 C 38.320312 -16.101562 39.320312 -16.976562 40.320312 -18.101562 C 41.316406 -19.222656 42.066406 -20.347656 42.816406 -21.71875 C 44.0625 -24.214844 44.8125 -27.335938 44.6875 -30.457031 Z M 44.6875 -30.457031 "/></g></g></g><g fill="#ffffff" fill-opacity="1"><g transform="translate(323.981656, 100.158217)"><g><path d="M 42.941406 -37.824219 C 42.816406 -38.570312 42.566406 -39.320312 42.441406 -40.195312 L 42.066406 -41.441406 C 41.816406 -41.816406 41.816406 -42.191406 41.566406 -42.691406 L 40.945312 -43.9375 C 40.945312 -44.0625 40.820312 -44.3125 40.695312 -44.5625 L 40.320312 -45.1875 C 40.070312 -45.5625 39.820312 -45.9375 39.570312 -46.4375 C 39.320312 -46.808594 38.945312 -47.183594 38.570312 -47.558594 C 37.949219 -48.433594 37.199219 -49.058594 36.324219 -49.804688 C 35.449219 -50.429688 34.578125 -51.054688 33.578125 -51.429688 C 32.703125 -51.929688 31.707031 -52.300781 30.707031 -52.550781 C 29.707031 -52.800781 28.710938 -52.925781 27.710938 -52.925781 C 26.714844 -53.050781 25.839844 -53.050781 24.839844 -52.925781 C 24.339844 -52.925781 23.96875 -52.800781 23.46875 -52.800781 L 22.84375 -52.675781 L 22.09375 -52.550781 C 20.472656 -52.179688 18.972656 -51.679688 17.476562 -50.929688 C 17.226562 -61.914062 16.976562 -72.773438 16.976562 -83.757812 L 4.992188 -83.632812 C 5.117188 -59.667969 5.867188 -35.699219 7.113281 -11.734375 L 19.097656 -12.359375 C 18.722656 -19.597656 18.351562 -26.714844 18.101562 -33.953125 L 18.351562 -33.953125 C 18.226562 -34.828125 18.472656 -36.074219 19.097656 -37.199219 C 19.347656 -37.449219 19.472656 -37.699219 19.722656 -37.949219 C 19.847656 -38.074219 19.972656 -38.195312 20.097656 -38.320312 C 20.222656 -38.445312 20.347656 -38.570312 20.472656 -38.695312 C 21.097656 -39.195312 21.71875 -39.695312 22.46875 -40.070312 C 23.21875 -40.445312 23.96875 -40.695312 24.714844 -40.820312 L 25.089844 -40.945312 L 25.339844 -40.945312 C 25.464844 -40.945312 25.714844 -41.066406 25.839844 -41.066406 C 26.214844 -41.066406 26.589844 -41.066406 26.835938 -41.066406 C 27.210938 -41.066406 27.460938 -40.945312 27.710938 -40.945312 C 27.960938 -40.820312 28.210938 -40.820312 28.460938 -40.695312 C 28.710938 -40.570312 28.835938 -40.445312 28.960938 -40.320312 C 29.085938 -40.070312 29.335938 -40.070312 29.460938 -39.820312 C 29.585938 -39.695312 29.707031 -39.695312 29.707031 -39.570312 C 29.832031 -39.320312 29.832031 -39.195312 29.957031 -39.070312 L 30.082031 -38.945312 C 30.082031 -38.820312 30.207031 -38.695312 30.207031 -38.695312 C 30.332031 -38.445312 30.332031 -38.320312 30.457031 -38.195312 C 30.582031 -37.949219 30.582031 -37.699219 30.707031 -37.574219 L 30.832031 -36.949219 C 30.957031 -36.449219 31.082031 -36.074219 31.207031 -35.574219 C 31.582031 -33.578125 31.707031 -31.332031 31.707031 -28.960938 C 31.707031 -26.714844 31.457031 -24.214844 31.332031 -21.71875 C 31.082031 -19.222656 30.832031 -16.601562 30.707031 -13.730469 L 42.691406 -13.230469 C 42.816406 -15.601562 43.066406 -18.101562 43.316406 -20.722656 C 43.441406 -23.46875 43.691406 -26.089844 43.691406 -28.960938 C 43.691406 -31.707031 43.566406 -34.703125 42.941406 -37.824219 Z M 42.941406 -37.824219 "/></g></g></g></svg>