<svg xmlns="http://www.w3.org/2000/svg" xmlns:xlink="http://www.w3.org/1999/xlink" width="500" zoomAndPan="magnify" viewBox="0 0 375 149.999998" height="200" preserveAspectRatio="xMidYMid meet" version="1.0"><defs><g/><clipPath id="17e3fe17a5"><path d="M 92 75 L 124.25 75 L 124.25 107.25 L 92 107.25 Z M 92 75 " clip-rule="nonzero"/></clipPath></defs><g fill="#ffffff" fill-opacity="1"><g transform="translate(5.491686, 130.275639)"><g><path d="M 69.335938 -1.621094 C 64.84375 -29.554688 61.355469 -57.738281 58.113281 -85.921875 L 46.640625 -87.417969 C 44.769531 -82.800781 43.148438 -78.0625 41.652344 -73.324219 C 40.277344 -68.585938 38.90625 -63.847656 37.785156 -59.109375 C 36.539062 -54.371094 35.414062 -49.632812 34.292969 -44.894531 L 33.546875 -41.527344 L 32.796875 -43.644531 L 29.054688 -56.367188 C 26.4375 -64.84375 24.066406 -73.324219 21.574219 -81.929688 L 9.851562 -80.933594 C 6.984375 -54.992188 7.480469 -29.429688 5.113281 -4.488281 L 16.960938 -3.242188 C 18.207031 -16.210938 18.707031 -29.054688 19.328125 -41.773438 C 19.328125 -43.394531 19.453125 -44.894531 19.453125 -46.390625 L 21.324219 -40.152344 L 22.695312 -35.914062 L 24.691406 -29.554688 L 25.6875 -26.4375 L 26.6875 -23.320312 L 28.679688 -17.085938 L 40.152344 -17.457031 C 40.777344 -19.703125 41.277344 -22.074219 41.898438 -24.316406 C 42.398438 -26.6875 42.898438 -29.054688 43.519531 -31.425781 L 45.890625 -42.148438 C 47.011719 -46.886719 48.136719 -51.503906 49.382812 -56.117188 C 49.382812 -56.367188 49.507812 -56.613281 49.507812 -56.738281 C 51.875 -37.785156 54.496094 -18.707031 57.488281 0.25 Z M 69.335938 -1.621094 "/></g></g></g><g fill="#ffffff" fill-opacity="1"><g transform="translate(80.18656, 130.275639)"><g><path d="M 48.011719 -43.273438 C 47.636719 -46.140625 46.640625 -48.757812 45.265625 -51.253906 L 44.769531 -52.125 C 44.519531 -52.375 44.394531 -52.75 44.144531 -53.125 C 43.644531 -53.746094 43.273438 -54.246094 42.773438 -54.867188 C 41.652344 -55.992188 40.527344 -57.113281 39.28125 -57.988281 C 38.035156 -58.859375 36.539062 -59.609375 35.167969 -60.105469 C 34.417969 -60.355469 33.667969 -60.605469 32.921875 -60.855469 C 32.171875 -60.980469 31.300781 -61.105469 30.675781 -61.230469 C 28.058594 -61.476562 25.4375 -61.476562 22.695312 -61.105469 C 21.324219 -60.980469 19.953125 -60.605469 18.582031 -60.105469 C 17.085938 -59.609375 15.464844 -58.984375 13.964844 -57.738281 C 11.722656 -55.867188 9.726562 -53.621094 8.355469 -51.128906 C 6.984375 -48.632812 6.109375 -45.890625 5.488281 -43.394531 C 4.988281 -40.902344 4.738281 -38.035156 5.113281 -35.167969 C 5.363281 -32.296875 6.234375 -29.429688 7.855469 -26.8125 C 9.351562 -24.191406 11.472656 -21.949219 13.964844 -20.328125 C 16.585938 -18.582031 19.203125 -17.582031 22.074219 -16.960938 C 24.816406 -16.460938 27.808594 -16.335938 30.800781 -16.960938 C 33.667969 -17.582031 36.539062 -18.828125 38.90625 -20.574219 C 41.277344 -22.320312 43.148438 -24.566406 44.644531 -26.9375 C 46.140625 -29.304688 47.261719 -31.925781 47.886719 -34.792969 C 48.382812 -37.535156 48.507812 -40.402344 48.011719 -43.273438 Z M 36.164062 -37.285156 C 35.789062 -35.914062 35.289062 -34.542969 34.542969 -33.296875 C 33.792969 -32.046875 32.796875 -31.050781 31.800781 -30.300781 C 29.679688 -28.679688 27.183594 -28.183594 24.316406 -28.804688 C 21.574219 -29.304688 19.453125 -30.800781 18.207031 -32.921875 C 17.582031 -33.917969 17.085938 -35.167969 16.960938 -36.539062 C 16.835938 -37.910156 16.960938 -39.40625 17.207031 -41.027344 C 17.957031 -44.269531 19.203125 -46.640625 21.324219 -48.382812 C 21.449219 -48.382812 21.824219 -48.632812 22.445312 -48.882812 C 22.945312 -49.007812 23.695312 -49.132812 24.441406 -49.257812 C 25.9375 -49.507812 27.683594 -49.507812 29.179688 -49.257812 C 29.429688 -49.257812 29.554688 -49.257812 29.679688 -49.257812 C 29.804688 -49.257812 30.054688 -49.257812 30.179688 -49.132812 C 30.425781 -49.132812 30.675781 -49.007812 30.925781 -48.882812 C 31.425781 -48.757812 31.925781 -48.507812 32.421875 -48.136719 C 32.921875 -47.761719 33.296875 -47.386719 33.667969 -47.011719 C 34.167969 -46.515625 34.417969 -46.140625 34.792969 -45.390625 C 35.539062 -44.144531 36.039062 -42.773438 36.289062 -41.402344 C 36.414062 -40.03125 36.414062 -38.65625 36.164062 -37.285156 Z M 36.164062 -37.285156 "/></g></g></g><g fill="#ffffff" fill-opacity="1"><g transform="translate(133.682559, 130.275639)"><g><path d="M 42.648438 -35.167969 C 42.523438 -37.160156 42.398438 -39.15625 42.148438 -41.277344 C 42.148438 -42.273438 42.023438 -43.273438 41.898438 -44.269531 L 41.652344 -45.765625 L 41.652344 -46.515625 L 41.527344 -47.386719 C 41.152344 -49.632812 40.652344 -52 39.53125 -54.496094 C 39.03125 -55.617188 38.410156 -56.988281 37.535156 -58.113281 C 36.664062 -59.359375 35.664062 -60.605469 34.292969 -61.601562 C 33.546875 -62.101562 32.921875 -62.476562 32.171875 -62.851562 C 31.425781 -63.222656 30.425781 -63.597656 29.554688 -63.847656 C 27.683594 -64.347656 25.8125 -64.347656 24.191406 -64.097656 C 22.445312 -63.847656 20.949219 -63.222656 19.578125 -62.476562 C 18.828125 -62.101562 18.207031 -61.726562 17.582031 -61.230469 C 17.457031 -61.105469 17.332031 -60.980469 17.207031 -60.980469 C 17.207031 -62.351562 17.207031 -63.722656 17.207031 -65.09375 L 5.238281 -65.09375 C 5.238281 -48.382812 5.488281 -31.800781 4.988281 -15.339844 L 16.960938 -14.964844 C 16.960938 -17.207031 17.085938 -19.328125 17.085938 -21.574219 C 17.582031 -28.804688 19.078125 -36.039062 21.074219 -43.394531 L 21.824219 -46.140625 C 22.074219 -46.886719 22.320312 -47.636719 22.570312 -48.261719 C 23.070312 -49.632812 23.695312 -50.628906 24.441406 -51.253906 C 24.566406 -51.503906 24.691406 -51.503906 24.816406 -51.625 C 24.941406 -51.75 25.066406 -51.875 25.316406 -52 C 25.5625 -52.125 25.9375 -52.25 26.1875 -52.25 C 26.4375 -52.25 26.5625 -52.25 26.5625 -52.25 C 26.5625 -52.25 26.8125 -52.125 27.058594 -52 C 27.433594 -51.625 28.058594 -50.878906 28.558594 -49.757812 C 29.054688 -48.632812 29.429688 -47.136719 29.679688 -45.640625 L 29.679688 -45.019531 L 29.804688 -44.269531 L 29.929688 -42.898438 C 30.054688 -42.023438 30.179688 -41.027344 30.300781 -40.152344 C 30.425781 -38.285156 30.550781 -36.414062 30.675781 -34.417969 C 31.175781 -26.9375 31.175781 -19.203125 31.425781 -11.347656 L 43.394531 -11.597656 C 43.148438 -19.328125 43.148438 -27.183594 42.648438 -35.167969 Z M 42.648438 -35.167969 "/></g></g></g><g fill="#ffffff" fill-opacity="1"><g transform="translate(182.190582, 130.275639)"><g><path d="M 37.160156 -86.417969 C 24.816406 -86.667969 12.46875 -87.042969 0 -87.167969 L 0 -75.195312 C 3.867188 -75.070312 7.980469 -75.070312 11.972656 -74.945312 L 10.972656 -0.125 L 22.945312 0 L 23.941406 -74.695312 C 28.183594 -74.570312 32.546875 -74.449219 36.910156 -74.449219 Z M 37.160156 -86.417969 "/></g></g></g><g fill="#ffffff" fill-opacity="1"><g transform="translate(221.595541, 130.275639)"><g><path d="M 31.300781 -27.183594 C 31.175781 -26.6875 30.925781 -26.1875 30.550781 -25.6875 C 30.300781 -25.316406 29.929688 -24.941406 29.679688 -24.566406 C 29.304688 -24.316406 29.054688 -24.066406 28.804688 -24.066406 C 28.804688 -23.941406 28.679688 -23.941406 28.558594 -23.941406 L 28.308594 -23.816406 L 27.933594 -23.695312 C 27.683594 -23.695312 27.558594 -23.570312 27.433594 -23.570312 L 26.9375 -23.445312 C 26.4375 -23.320312 25.8125 -23.320312 25.316406 -23.320312 C 24.191406 -23.320312 23.070312 -23.570312 22.074219 -24.191406 C 20.949219 -24.691406 19.953125 -25.5625 19.203125 -26.5625 C 18.332031 -27.433594 17.707031 -28.679688 17.332031 -29.804688 C 17.207031 -30.054688 17.207031 -30.300781 17.207031 -30.550781 L 17.085938 -30.675781 C 17.085938 -30.800781 17.085938 -30.925781 17.085938 -31.050781 C 17.085938 -31.175781 17.085938 -31.425781 16.960938 -31.675781 C 16.960938 -31.925781 16.960938 -32.171875 16.960938 -32.421875 C 22.074219 -32.796875 27.183594 -33.171875 32.296875 -33.421875 L 44.269531 -33.792969 C 44.269531 -35.042969 44.144531 -36.164062 44.019531 -37.410156 C 43.894531 -38.53125 43.644531 -39.65625 43.519531 -40.777344 C 43.023438 -42.898438 42.523438 -45.140625 41.773438 -47.511719 C 41.402344 -48.632812 40.902344 -49.882812 40.277344 -51.253906 C 40.03125 -51.503906 39.90625 -51.875 39.65625 -52.25 L 39.28125 -52.75 L 39.15625 -53 L 39.03125 -53.246094 C 38.53125 -53.746094 38.160156 -54.371094 37.660156 -54.867188 C 36.789062 -55.992188 35.664062 -56.988281 34.292969 -57.863281 C 32.921875 -58.859375 31.425781 -59.609375 29.804688 -59.980469 C 26.4375 -60.980469 23.320312 -60.730469 20.453125 -59.855469 C 18.953125 -59.484375 17.582031 -58.859375 16.210938 -58.113281 C 14.839844 -57.238281 13.71875 -56.367188 12.71875 -55.242188 C 10.601562 -53.125 9.101562 -50.753906 8.105469 -48.382812 C 7.109375 -46.140625 6.234375 -43.894531 5.734375 -41.402344 C 5.238281 -39.03125 4.988281 -36.539062 4.988281 -34.167969 C 4.863281 -32.921875 4.988281 -31.675781 5.113281 -30.425781 C 5.113281 -30.054688 5.113281 -29.804688 5.238281 -29.554688 C 5.238281 -29.304688 5.238281 -29.179688 5.238281 -29.054688 L 5.363281 -28.433594 C 5.488281 -27.683594 5.613281 -26.9375 5.859375 -26.3125 C 6.734375 -23.445312 8.105469 -20.949219 9.976562 -18.828125 C 11.722656 -16.710938 13.964844 -14.839844 16.460938 -13.46875 C 19.078125 -12.222656 22.074219 -11.347656 25.066406 -11.347656 C 26.4375 -11.347656 27.933594 -11.472656 29.429688 -11.722656 L 30.425781 -11.972656 C 30.800781 -12.097656 31.050781 -12.222656 31.425781 -12.222656 L 32.421875 -12.59375 L 32.921875 -12.84375 C 33.046875 -12.84375 33.296875 -12.84375 33.421875 -12.96875 C 35.042969 -13.71875 36.539062 -14.714844 37.660156 -15.710938 C 38.90625 -16.835938 39.90625 -17.957031 40.652344 -19.203125 C 41.402344 -20.574219 42.148438 -21.824219 42.648438 -23.195312 C 43.148438 -24.691406 43.519531 -26.1875 43.519531 -27.933594 L 31.675781 -28.558594 C 31.550781 -28.308594 31.550781 -27.683594 31.300781 -27.183594 Z M 21.074219 -46.761719 C 21.449219 -47.136719 21.949219 -47.511719 22.320312 -47.761719 C 22.820312 -48.011719 23.320312 -48.261719 23.816406 -48.382812 C 24.816406 -48.632812 25.9375 -48.632812 26.5625 -48.507812 C 27.183594 -48.261719 27.808594 -47.886719 28.679688 -47.011719 C 28.929688 -46.761719 29.054688 -46.515625 29.304688 -46.265625 L 29.429688 -46.140625 C 29.429688 -46.015625 29.429688 -46.015625 29.429688 -46.015625 C 29.429688 -46.015625 29.429688 -46.015625 29.429688 -45.890625 C 29.554688 -45.890625 29.554688 -45.765625 29.679688 -45.640625 C 29.929688 -45.140625 30.179688 -44.519531 30.425781 -43.644531 C 30.425781 -43.644531 30.425781 -43.644531 30.425781 -43.519531 C 26.5625 -43.394531 22.570312 -43.148438 18.707031 -42.898438 C 18.828125 -43.023438 18.828125 -43.273438 18.953125 -43.519531 C 19.578125 -44.894531 20.328125 -46.015625 21.074219 -46.761719 Z M 21.074219 -46.761719 "/></g></g></g><g fill="#ffffff" fill-opacity="1"><g transform="translate(270.976474, 130.275639)"><g><path d="M 44.644531 -30.425781 L 32.671875 -29.554688 C 32.671875 -28.804688 32.546875 -28.058594 32.046875 -27.183594 C 31.675781 -26.3125 30.925781 -25.5625 30.179688 -25.066406 C 28.804688 -23.941406 26.5625 -23.695312 24.441406 -24.441406 C 23.320312 -24.816406 22.320312 -25.316406 21.449219 -26.0625 C 20.574219 -26.8125 19.828125 -27.683594 19.203125 -28.929688 C 17.832031 -31.300781 17.085938 -34.292969 16.960938 -37.410156 C 16.835938 -40.402344 17.207031 -43.644531 18.207031 -46.265625 C 18.707031 -47.511719 19.328125 -48.757812 20.078125 -49.632812 C 20.824219 -50.628906 21.699219 -51.253906 22.570312 -51.75 C 23.570312 -52.25 24.566406 -52.5 25.8125 -52.625 C 25.9375 -52.625 26.0625 -52.625 26.1875 -52.625 L 27.308594 -52.625 C 27.558594 -52.5 27.933594 -52.375 28.433594 -52.25 C 29.304688 -51.75 30.300781 -51.003906 30.925781 -50.253906 C 31.300781 -49.757812 31.550781 -49.382812 31.675781 -49.132812 C 31.675781 -49.007812 31.675781 -49.007812 31.800781 -48.882812 C 31.800781 -48.882812 31.800781 -48.757812 31.800781 -48.757812 C 31.800781 -48.757812 31.800781 -48.632812 31.800781 -48.632812 C 31.800781 -48.632812 31.800781 -48.632812 31.925781 -48.632812 L 43.769531 -49.132812 C 43.769531 -51.128906 43.148438 -52.75 42.523438 -54.246094 C 41.773438 -55.742188 41.027344 -56.863281 40.03125 -57.988281 C 38.285156 -60.105469 36.164062 -61.726562 33.546875 -62.976562 C 32.296875 -63.597656 30.925781 -64.097656 29.179688 -64.472656 L 28.558594 -64.472656 L 28.183594 -64.597656 L 25.9375 -64.597656 C 25.6875 -64.597656 25.316406 -64.597656 24.941406 -64.597656 C 22.320312 -64.347656 19.578125 -63.722656 17.085938 -62.351562 C 14.589844 -61.105469 12.46875 -59.234375 10.722656 -57.113281 C 9.101562 -55.117188 7.855469 -52.875 6.984375 -50.503906 C 6.109375 -48.261719 5.613281 -45.890625 5.238281 -43.644531 C 4.988281 -41.277344 4.863281 -39.03125 4.988281 -36.664062 C 5.238281 -32.046875 6.359375 -27.433594 8.730469 -23.070312 C 9.976562 -20.824219 11.597656 -18.707031 13.71875 -16.960938 C 15.835938 -15.214844 18.207031 -13.84375 20.699219 -12.96875 C 23.320312 -12.222656 26.0625 -11.847656 28.929688 -12.097656 C 30.300781 -12.34375 31.800781 -12.59375 33.171875 -13.09375 C 34.542969 -13.71875 35.914062 -14.339844 37.035156 -15.214844 C 38.285156 -16.085938 39.28125 -16.960938 40.277344 -18.082031 C 41.277344 -19.203125 42.023438 -20.328125 42.773438 -21.699219 C 44.019531 -24.191406 44.769531 -27.308594 44.644531 -30.425781 Z M 44.644531 -30.425781 "/></g></g></g><g fill="#ffffff" fill-opacity="1"><g transform="translate(320.731491, 130.275639)"><g><path d="M 42.898438 -37.785156 C 42.773438 -38.53125 42.523438 -39.28125 42.398438 -40.152344 L 42.023438 -41.402344 C 41.773438 -41.773438 41.773438 -42.148438 41.527344 -42.648438 L 40.902344 -43.894531 C 40.902344 -44.019531 40.777344 -44.269531 40.652344 -44.519531 L 40.277344 -45.140625 C 40.03125 -45.515625 39.78125 -45.890625 39.53125 -46.390625 C 39.28125 -46.761719 38.90625 -47.136719 38.53125 -47.511719 C 37.910156 -48.382812 37.160156 -49.007812 36.289062 -49.757812 C 35.414062 -50.378906 34.542969 -51.003906 33.546875 -51.378906 C 32.671875 -51.875 31.675781 -52.25 30.675781 -52.5 C 29.679688 -52.75 28.679688 -52.875 27.683594 -52.875 C 26.6875 -53 25.8125 -53 24.816406 -52.875 C 24.316406 -52.875 23.941406 -52.75 23.445312 -52.75 L 22.820312 -52.625 L 22.074219 -52.5 C 20.453125 -52.125 18.953125 -51.625 17.457031 -50.878906 C 17.207031 -61.851562 16.960938 -72.703125 16.960938 -83.675781 L 4.988281 -83.550781 C 5.113281 -59.609375 5.859375 -35.664062 7.109375 -11.722656 L 19.078125 -12.34375 C 18.707031 -19.578125 18.332031 -26.6875 18.082031 -33.917969 L 18.332031 -33.917969 C 18.207031 -34.792969 18.457031 -36.039062 19.078125 -37.160156 C 19.328125 -37.410156 19.453125 -37.660156 19.703125 -37.910156 C 19.828125 -38.035156 19.953125 -38.160156 20.078125 -38.285156 C 20.203125 -38.410156 20.328125 -38.53125 20.453125 -38.65625 C 21.074219 -39.15625 21.699219 -39.65625 22.445312 -40.03125 C 23.195312 -40.402344 23.941406 -40.652344 24.691406 -40.777344 L 25.066406 -40.902344 L 25.316406 -40.902344 C 25.4375 -40.902344 25.6875 -41.027344 25.8125 -41.027344 C 26.1875 -41.027344 26.5625 -41.027344 26.8125 -41.027344 C 27.183594 -41.027344 27.433594 -40.902344 27.683594 -40.902344 C 27.933594 -40.777344 28.183594 -40.777344 28.433594 -40.652344 C 28.679688 -40.527344 28.804688 -40.402344 28.929688 -40.277344 C 29.054688 -40.03125 29.304688 -40.03125 29.429688 -39.78125 C 29.554688 -39.65625 29.679688 -39.65625 29.679688 -39.53125 C 29.804688 -39.28125 29.804688 -39.15625 29.929688 -39.03125 L 30.054688 -38.90625 C 30.054688 -38.78125 30.179688 -38.65625 30.179688 -38.65625 C 30.300781 -38.410156 30.300781 -38.285156 30.425781 -38.160156 C 30.550781 -37.910156 30.550781 -37.660156 30.675781 -37.535156 L 30.800781 -36.910156 C 30.925781 -36.414062 31.050781 -36.039062 31.175781 -35.539062 C 31.550781 -33.546875 31.675781 -31.300781 31.675781 -28.929688 C 31.675781 -26.6875 31.425781 -24.191406 31.300781 -21.699219 C 31.050781 -19.203125 30.800781 -16.585938 30.675781 -13.71875 L 42.648438 -13.21875 C 42.773438 -15.585938 43.023438 -18.082031 43.273438 -20.699219 C 43.394531 -23.445312 43.644531 -26.0625 43.644531 -28.929688 C 43.644531 -31.675781 43.519531 -34.667969 42.898438 -37.785156 Z M 42.898438 -37.785156 "/></g></g></g><g clip-path="url(#17e3fe17a5)"><path fill="#000000" d="M 108.125 75 C 99.222656 75 92 82.21875 92 91.125 C 92 100.03125 99.222656 107.25 108.125 107.25 C 117.03125 107.25 124.25 100.03125 124.25 91.125 C 124.25 82.21875 117.03125 75 108.125 75 " fill-opacity="1" fill-rule="nonzero"/></g></svg>