<svg xmlns="http://www.w3.org/2000/svg" xmlns:xlink="http://www.w3.org/1999/xlink" width="500" zoomAndPan="magnify" viewBox="0 0 375 374.999991" height="500" preserveAspectRatio="xMidYMid meet" version="1.0"><defs><g/><clipPath id="b582fc7ba9"><path d="M 92.066406 170.011719 L 118.316406 170.011719 L 118.316406 196.261719 L 92.066406 196.261719 Z M 92.066406 170.011719 " clip-rule="nonzero"/></clipPath></defs><g fill="#000000" fill-opacity="1"><g transform="translate(2.835942, 222.94506)"><g><path d="M 70.351562 -1.644531 C 65.796875 -29.988281 62.253906 -58.585938 58.964844 -87.179688 L 47.324219 -88.699219 C 45.425781 -84.019531 43.78125 -79.210938 42.261719 -74.402344 C 40.871094 -69.59375 39.476562 -64.785156 38.339844 -59.976562 C 37.074219 -55.167969 35.933594 -50.359375 34.796875 -45.550781 L 34.039062 -42.136719 L 33.277344 -44.285156 L 29.480469 -57.191406 C 26.824219 -65.796875 24.421875 -74.402344 21.890625 -83.132812 L 9.996094 -82.121094 C 7.085938 -55.800781 7.59375 -29.863281 5.1875 -4.554688 L 17.207031 -3.289062 C 18.472656 -16.449219 18.980469 -29.480469 19.613281 -42.386719 C 19.613281 -44.035156 19.738281 -45.550781 19.738281 -47.070312 L 21.636719 -40.742188 L 23.027344 -36.441406 L 25.054688 -29.988281 L 27.078125 -23.660156 L 29.101562 -17.335938 L 40.742188 -17.714844 C 41.375 -19.992188 41.882812 -22.394531 42.515625 -24.675781 C 43.019531 -27.078125 43.527344 -29.480469 44.160156 -31.886719 L 46.5625 -42.769531 C 47.703125 -47.578125 48.839844 -52.257812 50.105469 -56.941406 C 50.105469 -57.191406 50.234375 -57.445312 50.234375 -57.574219 C 52.636719 -38.339844 55.292969 -18.980469 58.332031 0.253906 Z M 70.351562 -1.644531 "/></g></g></g><g fill="#000000" fill-opacity="1"><g transform="translate(78.625796, 222.94506)"><g><path d="M 48.714844 -43.90625 C 48.335938 -46.816406 47.324219 -49.472656 45.929688 -52.003906 L 45.425781 -52.890625 C 45.171875 -53.144531 45.046875 -53.523438 44.792969 -53.902344 C 44.285156 -54.535156 43.90625 -55.042969 43.402344 -55.675781 C 42.261719 -56.8125 41.125 -57.953125 39.859375 -58.835938 C 38.59375 -59.722656 37.074219 -60.484375 35.683594 -60.988281 C 34.921875 -61.242188 34.164062 -61.496094 33.40625 -61.746094 C 32.644531 -61.875 31.757812 -62 31.128906 -62.128906 C 28.46875 -62.378906 25.8125 -62.378906 23.027344 -62 C 21.636719 -61.875 20.246094 -61.496094 18.851562 -60.988281 C 17.335938 -60.484375 15.691406 -59.851562 14.171875 -58.585938 C 11.894531 -56.6875 9.871094 -54.410156 8.476562 -51.878906 C 7.085938 -49.347656 6.199219 -46.5625 5.566406 -44.035156 C 5.0625 -41.503906 4.808594 -38.59375 5.1875 -35.683594 C 5.441406 -32.773438 6.328125 -29.863281 7.972656 -27.203125 C 9.488281 -24.546875 11.640625 -22.269531 14.171875 -20.625 C 16.828125 -18.851562 19.484375 -17.839844 22.394531 -17.207031 C 25.179688 -16.703125 28.214844 -16.574219 31.253906 -17.207031 C 34.164062 -17.839844 37.074219 -19.105469 39.476562 -20.878906 C 41.882812 -22.648438 43.78125 -24.925781 45.296875 -27.332031 C 46.816406 -29.734375 47.957031 -32.390625 48.589844 -35.300781 C 49.09375 -38.085938 49.222656 -40.996094 48.714844 -43.90625 Z M 36.695312 -37.832031 C 36.316406 -36.441406 35.808594 -35.050781 35.050781 -33.785156 C 34.289062 -32.519531 33.277344 -31.507812 32.265625 -30.746094 C 30.113281 -29.101562 27.585938 -28.597656 24.675781 -29.230469 C 21.890625 -29.734375 19.738281 -31.253906 18.472656 -33.40625 C 17.839844 -34.417969 17.335938 -35.683594 17.207031 -37.074219 C 17.082031 -38.464844 17.207031 -39.984375 17.460938 -41.628906 C 18.21875 -44.917969 19.484375 -47.324219 21.636719 -49.09375 C 21.761719 -49.09375 22.144531 -49.347656 22.777344 -49.601562 C 23.28125 -49.726562 24.042969 -49.855469 24.800781 -49.980469 C 26.320312 -50.234375 28.089844 -50.234375 29.609375 -49.980469 C 29.863281 -49.980469 29.988281 -49.980469 30.113281 -49.980469 C 30.242188 -49.980469 30.496094 -49.980469 30.621094 -49.855469 C 30.875 -49.855469 31.128906 -49.726562 31.378906 -49.601562 C 31.886719 -49.472656 32.390625 -49.222656 32.898438 -48.839844 C 33.40625 -48.460938 33.785156 -48.082031 34.164062 -47.703125 C 34.667969 -47.195312 34.921875 -46.816406 35.300781 -46.058594 C 36.0625 -44.792969 36.566406 -43.402344 36.820312 -42.007812 C 36.949219 -40.617188 36.949219 -39.226562 36.695312 -37.832031 Z M 36.695312 -37.832031 "/></g></g></g><g fill="#000000" fill-opacity="1"><g transform="translate(132.906013, 222.94506)"><g><path d="M 43.273438 -35.683594 C 43.148438 -37.707031 43.019531 -39.730469 42.769531 -41.882812 C 42.769531 -42.894531 42.640625 -43.90625 42.515625 -44.917969 L 42.261719 -46.4375 L 42.261719 -47.195312 L 42.136719 -48.082031 C 41.753906 -50.359375 41.25 -52.765625 40.109375 -55.292969 C 39.605469 -56.433594 38.972656 -57.824219 38.085938 -58.964844 C 37.199219 -60.230469 36.1875 -61.496094 34.796875 -62.507812 C 34.039062 -63.011719 33.40625 -63.394531 32.644531 -63.773438 C 31.886719 -64.152344 30.875 -64.53125 29.988281 -64.785156 C 28.089844 -65.289062 26.191406 -65.289062 24.546875 -65.039062 C 22.777344 -64.785156 21.257812 -64.152344 19.867188 -63.394531 C 19.105469 -63.011719 18.472656 -62.632812 17.839844 -62.128906 C 17.714844 -62 17.589844 -61.875 17.460938 -61.875 C 17.460938 -63.265625 17.460938 -64.65625 17.460938 -66.050781 L 5.3125 -66.050781 C 5.3125 -49.09375 5.566406 -32.265625 5.0625 -15.5625 L 17.207031 -15.183594 C 17.207031 -17.460938 17.335938 -19.613281 17.335938 -21.890625 C 17.839844 -29.230469 19.359375 -36.566406 21.382812 -44.035156 L 22.144531 -46.816406 C 22.394531 -47.578125 22.648438 -48.335938 22.902344 -48.96875 C 23.410156 -50.359375 24.042969 -51.371094 24.800781 -52.003906 C 24.925781 -52.257812 25.054688 -52.257812 25.179688 -52.382812 C 25.304688 -52.511719 25.433594 -52.636719 25.6875 -52.765625 C 25.9375 -52.890625 26.320312 -53.015625 26.570312 -53.015625 C 26.824219 -53.015625 26.953125 -53.015625 26.953125 -53.015625 C 26.953125 -53.015625 27.203125 -52.890625 27.457031 -52.765625 C 27.835938 -52.382812 28.46875 -51.625 28.976562 -50.488281 C 29.480469 -49.347656 29.863281 -47.828125 30.113281 -46.3125 L 30.113281 -45.679688 L 30.242188 -44.917969 L 30.367188 -43.527344 C 30.496094 -42.640625 30.621094 -41.628906 30.746094 -40.742188 C 30.875 -38.84375 31 -36.949219 31.128906 -34.921875 C 31.632812 -27.332031 31.632812 -19.484375 31.886719 -11.515625 L 44.035156 -11.765625 C 43.78125 -19.613281 43.78125 -27.585938 43.273438 -35.683594 Z M 43.273438 -35.683594 "/></g></g></g><g fill="#000000" fill-opacity="1"><g transform="translate(182.125138, 222.94506)"><g><path d="M 37.707031 -87.6875 C 25.179688 -87.941406 12.652344 -88.320312 0 -88.445312 L 0 -76.300781 C 3.921875 -76.171875 8.097656 -76.171875 12.148438 -76.046875 L 11.136719 -0.125 L 23.28125 0 L 24.292969 -75.792969 C 28.597656 -75.667969 33.023438 -75.539062 37.453125 -75.539062 Z M 37.707031 -87.6875 "/></g></g></g><g fill="#000000" fill-opacity="1"><g transform="translate(222.107771, 222.94506)"><g><path d="M 31.757812 -27.585938 C 31.632812 -27.078125 31.378906 -26.570312 31 -26.066406 C 30.746094 -25.6875 30.367188 -25.304688 30.113281 -24.925781 C 29.734375 -24.675781 29.480469 -24.421875 29.230469 -24.421875 C 29.230469 -24.292969 29.101562 -24.292969 28.976562 -24.292969 L 28.722656 -24.167969 L 28.34375 -24.042969 C 28.089844 -24.042969 27.964844 -23.914062 27.835938 -23.914062 L 27.332031 -23.789062 C 26.824219 -23.660156 26.191406 -23.660156 25.6875 -23.660156 C 24.546875 -23.660156 23.410156 -23.914062 22.394531 -24.546875 C 21.257812 -25.054688 20.246094 -25.9375 19.484375 -26.953125 C 18.601562 -27.835938 17.96875 -29.101562 17.589844 -30.242188 C 17.460938 -30.496094 17.460938 -30.746094 17.460938 -31 L 17.335938 -31.128906 C 17.335938 -31.253906 17.335938 -31.378906 17.335938 -31.507812 C 17.335938 -31.632812 17.335938 -31.886719 17.207031 -32.140625 C 17.207031 -32.390625 17.207031 -32.644531 17.207031 -32.898438 C 22.394531 -33.277344 27.585938 -33.65625 32.773438 -33.910156 L 44.917969 -34.289062 C 44.917969 -35.554688 44.792969 -36.695312 44.664062 -37.960938 C 44.539062 -39.097656 44.285156 -40.238281 44.160156 -41.375 C 43.652344 -43.527344 43.148438 -45.804688 42.386719 -48.207031 C 42.007812 -49.347656 41.503906 -50.613281 40.871094 -52.003906 C 40.617188 -52.257812 40.492188 -52.636719 40.238281 -53.015625 L 39.859375 -53.523438 L 39.730469 -53.777344 L 39.605469 -54.03125 C 39.097656 -54.535156 38.71875 -55.167969 38.210938 -55.675781 C 37.328125 -56.8125 36.1875 -57.824219 34.796875 -58.710938 C 33.40625 -59.722656 31.886719 -60.484375 30.242188 -60.863281 C 26.824219 -61.875 23.660156 -61.621094 20.75 -60.734375 C 19.234375 -60.355469 17.839844 -59.722656 16.449219 -58.964844 C 15.058594 -58.078125 13.917969 -57.191406 12.90625 -56.054688 C 10.753906 -53.902344 9.238281 -51.5 8.226562 -49.09375 C 7.210938 -46.816406 6.328125 -44.539062 5.820312 -42.007812 C 5.3125 -39.605469 5.0625 -37.074219 5.0625 -34.667969 C 4.933594 -33.40625 5.0625 -32.140625 5.1875 -30.875 C 5.1875 -30.496094 5.1875 -30.242188 5.3125 -29.988281 C 5.3125 -29.734375 5.3125 -29.609375 5.3125 -29.480469 L 5.441406 -28.847656 C 5.566406 -28.089844 5.695312 -27.332031 5.945312 -26.699219 C 6.832031 -23.789062 8.226562 -21.257812 10.121094 -19.105469 C 11.894531 -16.957031 14.171875 -15.058594 16.703125 -13.664062 C 19.359375 -12.398438 22.394531 -11.515625 25.433594 -11.515625 C 26.824219 -11.515625 28.34375 -11.640625 29.863281 -11.894531 L 30.875 -12.148438 C 31.253906 -12.273438 31.507812 -12.398438 31.886719 -12.398438 L 32.898438 -12.78125 L 33.40625 -13.03125 C 33.53125 -13.03125 33.785156 -13.03125 33.910156 -13.160156 C 35.554688 -13.917969 37.074219 -14.929688 38.210938 -15.941406 C 39.476562 -17.082031 40.492188 -18.21875 41.25 -19.484375 C 42.007812 -20.878906 42.769531 -22.144531 43.273438 -23.535156 C 43.78125 -25.054688 44.160156 -26.570312 44.160156 -28.34375 L 32.140625 -28.976562 C 32.011719 -28.722656 32.011719 -28.089844 31.757812 -27.585938 Z M 21.382812 -47.449219 C 21.761719 -47.828125 22.269531 -48.207031 22.648438 -48.460938 C 23.15625 -48.714844 23.660156 -48.96875 24.167969 -49.09375 C 25.179688 -49.347656 26.320312 -49.347656 26.953125 -49.222656 C 27.585938 -48.96875 28.214844 -48.589844 29.101562 -47.703125 C 29.355469 -47.449219 29.480469 -47.195312 29.734375 -46.945312 L 29.863281 -46.816406 C 29.863281 -46.691406 29.863281 -46.691406 29.863281 -46.691406 C 29.863281 -46.691406 29.863281 -46.691406 29.863281 -46.5625 C 29.988281 -46.5625 29.988281 -46.4375 30.113281 -46.3125 C 30.367188 -45.804688 30.621094 -45.171875 30.875 -44.285156 C 30.875 -44.285156 30.875 -44.285156 30.875 -44.160156 C 26.953125 -44.035156 22.902344 -43.78125 18.980469 -43.527344 C 19.105469 -43.652344 19.105469 -43.90625 19.234375 -44.160156 C 19.867188 -45.550781 20.625 -46.691406 21.382812 -47.449219 Z M 21.382812 -47.449219 "/></g></g></g><g fill="#000000" fill-opacity="1"><g transform="translate(272.212588, 222.94506)"><g><path d="M 45.296875 -30.875 L 33.152344 -29.988281 C 33.152344 -29.230469 33.023438 -28.46875 32.519531 -27.585938 C 32.140625 -26.699219 31.378906 -25.9375 30.621094 -25.433594 C 29.230469 -24.292969 26.953125 -24.042969 24.800781 -24.800781 C 23.660156 -25.179688 22.648438 -25.6875 21.761719 -26.445312 C 20.878906 -27.203125 20.117188 -28.089844 19.484375 -29.355469 C 18.09375 -31.757812 17.335938 -34.796875 17.207031 -37.960938 C 17.082031 -40.996094 17.460938 -44.285156 18.472656 -46.945312 C 18.980469 -48.207031 19.613281 -49.472656 20.371094 -50.359375 C 21.132812 -51.371094 22.015625 -52.003906 22.902344 -52.511719 C 23.914062 -53.015625 24.925781 -53.269531 26.191406 -53.398438 C 26.320312 -53.398438 26.445312 -53.398438 26.570312 -53.398438 L 27.710938 -53.398438 C 27.964844 -53.269531 28.34375 -53.144531 28.847656 -53.015625 C 29.734375 -52.511719 30.746094 -51.75 31.378906 -50.992188 C 31.757812 -50.488281 32.011719 -50.105469 32.140625 -49.855469 C 32.140625 -49.726562 32.140625 -49.726562 32.265625 -49.601562 C 32.265625 -49.601562 32.265625 -49.472656 32.265625 -49.472656 C 32.265625 -49.472656 32.265625 -49.347656 32.265625 -49.347656 C 32.265625 -49.347656 32.265625 -49.347656 32.390625 -49.347656 L 44.414062 -49.855469 C 44.414062 -51.878906 43.78125 -53.523438 43.148438 -55.042969 C 42.386719 -56.558594 41.628906 -57.699219 40.617188 -58.835938 C 38.84375 -60.988281 36.695312 -62.632812 34.039062 -63.898438 C 32.773438 -64.53125 31.378906 -65.039062 29.609375 -65.417969 L 28.976562 -65.417969 L 28.597656 -65.542969 L 26.320312 -65.542969 C 26.066406 -65.542969 25.6875 -65.542969 25.304688 -65.542969 C 22.648438 -65.289062 19.867188 -64.65625 17.335938 -63.265625 C 14.804688 -62 12.652344 -60.101562 10.882812 -57.953125 C 9.238281 -55.925781 7.972656 -53.648438 7.085938 -51.246094 C 6.199219 -48.96875 5.695312 -46.5625 5.3125 -44.285156 C 5.0625 -41.882812 4.933594 -39.605469 5.0625 -37.199219 C 5.3125 -32.519531 6.453125 -27.835938 8.855469 -23.410156 C 10.121094 -21.132812 11.765625 -18.980469 13.917969 -17.207031 C 16.070312 -15.4375 18.472656 -14.046875 21.003906 -13.160156 C 23.660156 -12.398438 26.445312 -12.019531 29.355469 -12.273438 C 30.746094 -12.527344 32.265625 -12.78125 33.65625 -13.285156 C 35.050781 -13.917969 36.441406 -14.550781 37.582031 -15.4375 C 38.84375 -16.324219 39.859375 -17.207031 40.871094 -18.347656 C 41.882812 -19.484375 42.640625 -20.625 43.402344 -22.015625 C 44.664062 -24.546875 45.425781 -27.710938 45.296875 -30.875 Z M 45.296875 -30.875 "/></g></g></g><g fill="#000000" fill-opacity="1"><g transform="translate(322.696983, 222.94506)"><g><path d="M 43.527344 -38.339844 C 43.402344 -39.097656 43.148438 -39.859375 43.019531 -40.742188 L 42.640625 -42.007812 C 42.386719 -42.386719 42.386719 -42.769531 42.136719 -43.273438 L 41.503906 -44.539062 C 41.503906 -44.664062 41.375 -44.917969 41.25 -45.171875 L 40.871094 -45.804688 C 40.617188 -46.183594 40.363281 -46.5625 40.109375 -47.070312 C 39.859375 -47.449219 39.476562 -47.828125 39.097656 -48.207031 C 38.464844 -49.09375 37.707031 -49.726562 36.820312 -50.488281 C 35.933594 -51.117188 35.050781 -51.75 34.039062 -52.132812 C 33.152344 -52.636719 32.140625 -53.015625 31.128906 -53.269531 C 30.113281 -53.523438 29.101562 -53.648438 28.089844 -53.648438 C 27.078125 -53.777344 26.191406 -53.777344 25.179688 -53.648438 C 24.675781 -53.648438 24.292969 -53.523438 23.789062 -53.523438 L 23.15625 -53.398438 L 22.394531 -53.269531 C 20.75 -52.890625 19.234375 -52.382812 17.714844 -51.625 C 17.460938 -62.761719 17.207031 -73.769531 17.207031 -84.902344 L 5.0625 -84.777344 C 5.1875 -60.484375 5.945312 -36.1875 7.210938 -11.894531 L 19.359375 -12.527344 C 18.980469 -19.867188 18.601562 -27.078125 18.347656 -34.417969 L 18.601562 -34.417969 C 18.472656 -35.300781 18.726562 -36.566406 19.359375 -37.707031 C 19.613281 -37.960938 19.738281 -38.210938 19.992188 -38.464844 C 20.117188 -38.59375 20.246094 -38.71875 20.371094 -38.84375 C 20.5 -38.972656 20.625 -39.097656 20.75 -39.226562 C 21.382812 -39.730469 22.015625 -40.238281 22.777344 -40.617188 C 23.535156 -40.996094 24.292969 -41.25 25.054688 -41.375 L 25.433594 -41.503906 L 25.6875 -41.503906 C 25.8125 -41.503906 26.066406 -41.628906 26.191406 -41.628906 C 26.570312 -41.628906 26.953125 -41.628906 27.203125 -41.628906 C 27.585938 -41.628906 27.835938 -41.503906 28.089844 -41.503906 C 28.34375 -41.375 28.597656 -41.375 28.847656 -41.25 C 29.101562 -41.125 29.230469 -40.996094 29.355469 -40.871094 C 29.480469 -40.617188 29.734375 -40.617188 29.863281 -40.363281 C 29.988281 -40.238281 30.113281 -40.238281 30.113281 -40.109375 C 30.242188 -39.859375 30.242188 -39.730469 30.367188 -39.605469 L 30.496094 -39.476562 C 30.496094 -39.351562 30.621094 -39.226562 30.621094 -39.226562 C 30.746094 -38.972656 30.746094 -38.84375 30.875 -38.71875 C 31 -38.464844 31 -38.210938 31.128906 -38.085938 L 31.253906 -37.453125 C 31.378906 -36.949219 31.507812 -36.566406 31.632812 -36.0625 C 32.011719 -34.039062 32.140625 -31.757812 32.140625 -29.355469 C 32.140625 -27.078125 31.886719 -24.546875 31.757812 -22.015625 C 31.507812 -19.484375 31.253906 -16.828125 31.128906 -13.917969 L 43.273438 -13.414062 C 43.402344 -15.816406 43.652344 -18.347656 43.90625 -21.003906 C 44.035156 -23.789062 44.285156 -26.445312 44.285156 -29.355469 C 44.285156 -32.140625 44.160156 -35.175781 43.527344 -38.339844 Z M 43.527344 -38.339844 "/></g></g></g><g clip-path="url(#b582fc7ba9)"><path fill="#ffffff" d="M 105.191406 170.011719 C 97.941406 170.011719 92.066406 175.890625 92.066406 183.136719 C 92.066406 190.386719 97.941406 196.261719 105.191406 196.261719 C 112.441406 196.261719 118.316406 190.386719 118.316406 183.136719 C 118.316406 175.890625 112.441406 170.011719 105.191406 170.011719 " fill-opacity="1" fill-rule="nonzero"/></g></svg>