<svg xmlns="http://www.w3.org/2000/svg" xmlns:xlink="http://www.w3.org/1999/xlink" width="500" zoomAndPan="magnify" viewBox="0 0 375 149.999998" height="200" preserveAspectRatio="xMidYMid meet" version="1.0"><defs><g/><clipPath id="c254fa9a74"><path d="M 92 75 L 124.25 75 L 124.25 107.25 L 92 107.25 Z M 92 75 " clip-rule="nonzero"/></clipPath></defs><g fill="#000000" fill-opacity="1"><g transform="translate(5.497684, 131.178397)"><g><path d="M 69.339844 -1.621094 C 64.847656 -29.554688 61.355469 -57.738281 58.113281 -85.925781 L 46.640625 -87.421875 C 44.769531 -82.804688 43.148438 -78.066406 41.652344 -73.328125 C 40.28125 -68.589844 38.910156 -63.851562 37.785156 -59.113281 C 36.539062 -54.371094 35.417969 -49.632812 34.292969 -44.894531 L 33.546875 -41.527344 L 32.796875 -43.648438 L 29.058594 -56.367188 C 26.4375 -64.847656 24.070312 -73.328125 21.574219 -81.933594 L 9.851562 -80.9375 C 6.984375 -54.996094 7.484375 -29.429688 5.113281 -4.488281 L 16.960938 -3.242188 C 18.207031 -16.210938 18.707031 -29.058594 19.328125 -41.777344 C 19.328125 -43.398438 19.453125 -44.894531 19.453125 -46.390625 L 21.324219 -40.15625 L 22.695312 -35.917969 L 24.691406 -29.554688 L 25.691406 -26.4375 L 26.6875 -23.320312 L 28.683594 -17.085938 L 40.15625 -17.460938 C 40.78125 -19.703125 41.277344 -22.074219 41.902344 -24.316406 C 42.402344 -26.6875 42.898438 -29.058594 43.523438 -31.425781 L 45.894531 -42.152344 C 47.015625 -46.890625 48.136719 -51.503906 49.382812 -56.117188 C 49.382812 -56.367188 49.507812 -56.617188 49.507812 -56.742188 C 51.878906 -37.785156 54.496094 -18.707031 57.492188 0.25 Z M 69.339844 -1.621094 "/></g></g></g><g fill="#000000" fill-opacity="1"><g transform="translate(80.195106, 131.178397)"><g><path d="M 48.011719 -43.273438 C 47.640625 -46.140625 46.640625 -48.761719 45.269531 -51.253906 L 44.769531 -52.128906 C 44.519531 -52.378906 44.394531 -52.75 44.148438 -53.125 C 43.648438 -53.75 43.273438 -54.25 42.773438 -54.871094 C 41.652344 -55.996094 40.53125 -57.117188 39.285156 -57.988281 C 38.035156 -58.863281 36.539062 -59.609375 35.167969 -60.109375 C 34.417969 -60.359375 33.671875 -60.609375 32.921875 -60.859375 C 32.175781 -60.984375 31.300781 -61.105469 30.679688 -61.230469 C 28.058594 -61.480469 25.441406 -61.480469 22.695312 -61.105469 C 21.324219 -60.984375 19.953125 -60.609375 18.582031 -60.109375 C 17.085938 -59.609375 15.464844 -58.988281 13.96875 -57.738281 C 11.722656 -55.871094 9.726562 -53.625 8.355469 -51.128906 C 6.984375 -48.636719 6.109375 -45.894531 5.488281 -43.398438 C 4.988281 -40.90625 4.738281 -38.035156 5.113281 -35.167969 C 5.363281 -32.300781 6.234375 -29.429688 7.855469 -26.8125 C 9.351562 -24.195312 11.472656 -21.949219 13.96875 -20.328125 C 16.585938 -18.582031 19.207031 -17.582031 22.074219 -16.960938 C 24.816406 -16.460938 27.808594 -16.335938 30.804688 -16.960938 C 33.671875 -17.582031 36.539062 -18.832031 38.910156 -20.578125 C 41.277344 -22.324219 43.148438 -24.566406 44.644531 -26.9375 C 46.140625 -29.304688 47.265625 -31.925781 47.886719 -34.792969 C 48.386719 -37.539062 48.511719 -40.40625 48.011719 -43.273438 Z M 36.164062 -37.289062 C 35.792969 -35.917969 35.292969 -34.542969 34.542969 -33.296875 C 33.796875 -32.050781 32.796875 -31.050781 31.800781 -30.304688 C 29.679688 -28.683594 27.1875 -28.183594 24.316406 -28.808594 C 21.574219 -29.304688 19.453125 -30.804688 18.207031 -32.921875 C 17.582031 -33.921875 17.085938 -35.167969 16.960938 -36.539062 C 16.835938 -37.910156 16.960938 -39.40625 17.210938 -41.027344 C 17.957031 -44.273438 19.207031 -46.640625 21.324219 -48.386719 C 21.449219 -48.386719 21.824219 -48.636719 22.449219 -48.886719 C 22.945312 -49.011719 23.695312 -49.136719 24.441406 -49.261719 C 25.9375 -49.507812 27.683594 -49.507812 29.183594 -49.261719 C 29.429688 -49.261719 29.554688 -49.261719 29.679688 -49.261719 C 29.804688 -49.261719 30.054688 -49.261719 30.179688 -49.136719 C 30.429688 -49.136719 30.679688 -49.011719 30.929688 -48.886719 C 31.425781 -48.761719 31.925781 -48.511719 32.425781 -48.136719 C 32.921875 -47.761719 33.296875 -47.390625 33.671875 -47.015625 C 34.171875 -46.515625 34.417969 -46.140625 34.792969 -45.394531 C 35.542969 -44.148438 36.039062 -42.773438 36.289062 -41.402344 C 36.414062 -40.03125 36.414062 -38.660156 36.164062 -37.289062 Z M 36.164062 -37.289062 "/></g></g></g><g fill="#000000" fill-opacity="1"><g transform="translate(133.692929, 131.178397)"><g><path d="M 42.648438 -35.167969 C 42.527344 -37.164062 42.402344 -39.160156 42.152344 -41.277344 C 42.152344 -42.277344 42.027344 -43.273438 41.902344 -44.273438 L 41.652344 -45.769531 L 41.652344 -46.515625 L 41.527344 -47.390625 C 41.152344 -49.632812 40.65625 -52.003906 39.53125 -54.496094 C 39.035156 -55.621094 38.410156 -56.992188 37.539062 -58.113281 C 36.664062 -59.359375 35.667969 -60.609375 34.292969 -61.605469 C 33.546875 -62.105469 32.921875 -62.480469 32.175781 -62.851562 C 31.425781 -63.226562 30.429688 -63.601562 29.554688 -63.851562 C 27.683594 -64.351562 25.816406 -64.351562 24.195312 -64.101562 C 22.449219 -63.851562 20.949219 -63.226562 19.578125 -62.480469 C 18.832031 -62.105469 18.207031 -61.730469 17.582031 -61.230469 C 17.460938 -61.105469 17.335938 -60.984375 17.210938 -60.984375 C 17.210938 -62.355469 17.210938 -63.726562 17.210938 -65.097656 L 5.238281 -65.097656 C 5.238281 -48.386719 5.488281 -31.800781 4.988281 -15.339844 L 16.960938 -14.964844 C 16.960938 -17.210938 17.085938 -19.328125 17.085938 -21.574219 C 17.582031 -28.808594 19.082031 -36.039062 21.074219 -43.398438 L 21.824219 -46.140625 C 22.074219 -46.890625 22.324219 -47.640625 22.574219 -48.261719 C 23.070312 -49.632812 23.695312 -50.632812 24.441406 -51.253906 C 24.566406 -51.503906 24.691406 -51.503906 24.816406 -51.628906 C 24.941406 -51.753906 25.066406 -51.878906 25.316406 -52.003906 C 25.566406 -52.128906 25.9375 -52.253906 26.1875 -52.253906 C 26.4375 -52.253906 26.5625 -52.253906 26.5625 -52.253906 C 26.5625 -52.253906 26.8125 -52.128906 27.0625 -52.003906 C 27.4375 -51.628906 28.058594 -50.882812 28.558594 -49.757812 C 29.058594 -48.636719 29.429688 -47.140625 29.679688 -45.644531 L 29.679688 -45.019531 L 29.804688 -44.273438 L 29.929688 -42.898438 C 30.054688 -42.027344 30.179688 -41.027344 30.304688 -40.15625 C 30.429688 -38.285156 30.554688 -36.414062 30.679688 -34.417969 C 31.175781 -26.9375 31.175781 -19.207031 31.425781 -11.347656 L 43.398438 -11.597656 C 43.148438 -19.328125 43.148438 -27.1875 42.648438 -35.167969 Z M 42.648438 -35.167969 "/></g></g></g><g fill="#000000" fill-opacity="1"><g transform="translate(182.20261, 131.178397)"><g><path d="M 37.164062 -86.421875 C 24.816406 -86.671875 12.472656 -87.046875 0 -87.171875 L 0 -75.199219 C 3.867188 -75.074219 7.980469 -75.074219 11.972656 -74.949219 L 10.972656 -0.125 L 22.945312 0 L 23.945312 -74.699219 C 28.183594 -74.574219 32.550781 -74.449219 36.914062 -74.449219 Z M 37.164062 -86.421875 "/></g></g></g><g fill="#000000" fill-opacity="1"><g transform="translate(221.608934, 131.178397)"><g><path d="M 31.300781 -27.1875 C 31.175781 -26.6875 30.929688 -26.1875 30.554688 -25.691406 C 30.304688 -25.316406 29.929688 -24.941406 29.679688 -24.566406 C 29.304688 -24.316406 29.058594 -24.070312 28.808594 -24.070312 C 28.808594 -23.945312 28.683594 -23.945312 28.558594 -23.945312 L 28.308594 -23.820312 L 27.933594 -23.695312 C 27.683594 -23.695312 27.5625 -23.570312 27.4375 -23.570312 L 26.9375 -23.445312 C 26.4375 -23.320312 25.816406 -23.320312 25.316406 -23.320312 C 24.195312 -23.320312 23.070312 -23.570312 22.074219 -24.195312 C 20.949219 -24.691406 19.953125 -25.566406 19.207031 -26.5625 C 18.332031 -27.4375 17.707031 -28.683594 17.335938 -29.804688 C 17.210938 -30.054688 17.210938 -30.304688 17.210938 -30.554688 L 17.085938 -30.679688 C 17.085938 -30.804688 17.085938 -30.929688 17.085938 -31.050781 C 17.085938 -31.175781 17.085938 -31.425781 16.960938 -31.675781 C 16.960938 -31.925781 16.960938 -32.175781 16.960938 -32.425781 C 22.074219 -32.796875 27.1875 -33.171875 32.300781 -33.421875 L 44.273438 -33.796875 C 44.273438 -35.042969 44.148438 -36.164062 44.023438 -37.414062 C 43.898438 -38.535156 43.648438 -39.65625 43.523438 -40.78125 C 43.023438 -42.898438 42.527344 -45.144531 41.777344 -47.515625 C 41.402344 -48.636719 40.90625 -49.882812 40.28125 -51.253906 C 40.03125 -51.503906 39.90625 -51.878906 39.65625 -52.253906 L 39.285156 -52.75 L 39.035156 -53.25 C 38.535156 -53.75 38.160156 -54.371094 37.660156 -54.871094 C 36.789062 -55.996094 35.667969 -56.992188 34.292969 -57.863281 C 32.921875 -58.863281 31.425781 -59.609375 29.804688 -59.984375 C 26.4375 -60.984375 23.320312 -60.734375 20.453125 -59.859375 C 18.957031 -59.484375 17.582031 -58.863281 16.210938 -58.113281 C 14.839844 -57.242188 13.71875 -56.367188 12.71875 -55.246094 C 10.601562 -53.125 9.105469 -50.757812 8.105469 -48.386719 C 7.109375 -46.140625 6.234375 -43.898438 5.738281 -41.402344 C 5.238281 -39.035156 4.988281 -36.539062 4.988281 -34.171875 C 4.863281 -32.921875 4.988281 -31.675781 5.113281 -30.429688 C 5.113281 -30.054688 5.113281 -29.804688 5.238281 -29.554688 C 5.238281 -29.304688 5.238281 -29.183594 5.238281 -29.058594 L 5.363281 -28.433594 C 5.488281 -27.683594 5.613281 -26.9375 5.859375 -26.3125 C 6.734375 -23.445312 8.105469 -20.949219 9.976562 -18.832031 C 11.722656 -16.710938 13.96875 -14.839844 16.460938 -13.46875 C 19.082031 -12.222656 22.074219 -11.347656 25.066406 -11.347656 C 26.4375 -11.347656 27.933594 -11.472656 29.429688 -11.722656 L 30.429688 -11.972656 C 30.804688 -12.097656 31.050781 -12.222656 31.425781 -12.222656 L 32.425781 -12.59375 L 32.921875 -12.84375 C 33.046875 -12.84375 33.296875 -12.84375 33.421875 -12.96875 C 35.042969 -13.71875 36.539062 -14.714844 37.660156 -15.714844 C 38.910156 -16.835938 39.90625 -17.957031 40.65625 -19.207031 C 41.402344 -20.578125 42.152344 -21.824219 42.648438 -23.195312 C 43.148438 -24.691406 43.523438 -26.1875 43.523438 -27.933594 L 31.675781 -28.558594 C 31.550781 -28.308594 31.550781 -27.683594 31.300781 -27.1875 Z M 21.074219 -46.765625 C 21.449219 -47.140625 21.949219 -47.515625 22.324219 -47.761719 C 22.820312 -48.011719 23.320312 -48.261719 23.820312 -48.386719 C 24.816406 -48.636719 25.9375 -48.636719 26.5625 -48.511719 C 27.1875 -48.261719 27.808594 -47.886719 28.683594 -47.015625 C 28.933594 -46.765625 29.058594 -46.515625 29.304688 -46.265625 L 29.429688 -46.140625 C 29.429688 -46.015625 29.429688 -46.015625 29.429688 -46.015625 C 29.429688 -46.015625 29.429688 -46.015625 29.429688 -45.894531 C 29.554688 -45.894531 29.554688 -45.769531 29.679688 -45.644531 C 29.929688 -45.144531 30.179688 -44.519531 30.429688 -43.648438 C 30.429688 -43.648438 30.429688 -43.648438 30.429688 -43.523438 C 26.5625 -43.398438 22.574219 -43.148438 18.707031 -42.898438 C 18.832031 -43.023438 18.832031 -43.273438 18.957031 -43.523438 C 19.578125 -44.894531 20.328125 -46.015625 21.074219 -46.765625 Z M 21.074219 -46.765625 "/></g></g></g><g fill="#000000" fill-opacity="1"><g transform="translate(270.991542, 131.178397)"><g><path d="M 44.644531 -30.429688 L 32.671875 -29.554688 C 32.671875 -28.808594 32.550781 -28.058594 32.050781 -27.1875 C 31.675781 -26.3125 30.929688 -25.566406 30.179688 -25.066406 C 28.808594 -23.945312 26.5625 -23.695312 24.441406 -24.441406 C 23.320312 -24.816406 22.324219 -25.316406 21.449219 -26.0625 C 20.578125 -26.8125 19.828125 -27.683594 19.207031 -28.933594 C 17.832031 -31.300781 17.085938 -34.292969 16.960938 -37.414062 C 16.835938 -40.40625 17.210938 -43.648438 18.207031 -46.265625 C 18.707031 -47.515625 19.328125 -48.761719 20.078125 -49.632812 C 20.828125 -50.632812 21.699219 -51.253906 22.574219 -51.753906 C 23.570312 -52.253906 24.566406 -52.503906 25.816406 -52.628906 C 25.9375 -52.628906 26.0625 -52.628906 26.1875 -52.628906 L 27.3125 -52.628906 C 27.5625 -52.503906 27.933594 -52.378906 28.433594 -52.253906 C 29.304688 -51.753906 30.304688 -51.003906 30.929688 -50.257812 C 31.300781 -49.757812 31.550781 -49.382812 31.675781 -49.136719 C 31.675781 -49.011719 31.675781 -49.011719 31.800781 -48.886719 C 31.800781 -48.886719 31.800781 -48.761719 31.800781 -48.761719 C 31.800781 -48.761719 31.800781 -48.636719 31.800781 -48.636719 C 31.800781 -48.636719 31.800781 -48.636719 31.925781 -48.636719 L 43.773438 -49.136719 C 43.773438 -51.128906 43.148438 -52.75 42.527344 -54.25 C 41.777344 -55.746094 41.027344 -56.867188 40.03125 -57.988281 C 38.285156 -60.109375 36.164062 -61.730469 33.546875 -62.976562 C 32.300781 -63.601562 30.929688 -64.101562 29.183594 -64.472656 L 28.558594 -64.472656 L 28.183594 -64.597656 L 25.9375 -64.597656 C 25.691406 -64.597656 25.316406 -64.597656 24.941406 -64.597656 C 22.324219 -64.351562 19.578125 -63.726562 17.085938 -62.355469 C 14.589844 -61.105469 12.472656 -59.238281 10.726562 -57.117188 C 9.105469 -55.121094 7.855469 -52.875 6.984375 -50.507812 C 6.109375 -48.261719 5.613281 -45.894531 5.238281 -43.648438 C 4.988281 -41.277344 4.863281 -39.035156 4.988281 -36.664062 C 5.238281 -32.050781 6.359375 -27.4375 8.730469 -23.070312 C 9.976562 -20.828125 11.597656 -18.707031 13.71875 -16.960938 C 15.839844 -15.214844 18.207031 -13.84375 20.703125 -12.96875 C 23.320312 -12.222656 26.0625 -11.847656 28.933594 -12.097656 C 30.304688 -12.347656 31.800781 -12.59375 33.171875 -13.09375 C 34.542969 -13.71875 35.917969 -14.339844 37.039062 -15.214844 C 38.285156 -16.085938 39.285156 -16.960938 40.28125 -18.082031 C 41.277344 -19.207031 42.027344 -20.328125 42.773438 -21.699219 C 44.023438 -24.195312 44.769531 -27.3125 44.644531 -30.429688 Z M 44.644531 -30.429688 "/></g></g></g><g fill="#000000" fill-opacity="1"><g transform="translate(320.748256, 131.178397)"><g><path d="M 42.898438 -37.785156 C 42.773438 -38.535156 42.527344 -39.285156 42.402344 -40.15625 L 42.027344 -41.402344 C 41.777344 -41.777344 41.777344 -42.152344 41.527344 -42.648438 L 40.90625 -43.898438 C 40.90625 -44.023438 40.78125 -44.273438 40.65625 -44.519531 L 40.28125 -45.144531 C 40.03125 -45.519531 39.78125 -45.894531 39.53125 -46.390625 C 39.285156 -46.765625 38.910156 -47.140625 38.535156 -47.515625 C 37.910156 -48.386719 37.164062 -49.011719 36.289062 -49.757812 C 35.417969 -50.382812 34.542969 -51.003906 33.546875 -51.378906 C 32.671875 -51.878906 31.675781 -52.253906 30.679688 -52.503906 C 29.679688 -52.75 28.683594 -52.875 27.683594 -52.875 C 26.6875 -53 25.816406 -53 24.816406 -52.875 C 24.316406 -52.875 23.945312 -52.75 23.445312 -52.75 L 22.820312 -52.628906 L 22.074219 -52.503906 C 20.453125 -52.128906 18.957031 -51.628906 17.460938 -50.882812 C 17.210938 -61.855469 16.960938 -72.707031 16.960938 -83.679688 L 4.988281 -83.554688 C 5.113281 -59.609375 5.859375 -35.667969 7.109375 -11.722656 L 19.082031 -12.347656 C 18.707031 -19.578125 18.332031 -26.6875 18.082031 -33.921875 L 18.332031 -33.921875 C 18.207031 -34.792969 18.457031 -36.039062 19.082031 -37.164062 C 19.328125 -37.414062 19.453125 -37.660156 19.703125 -37.910156 C 19.828125 -38.035156 19.953125 -38.160156 20.078125 -38.285156 C 20.203125 -38.410156 20.328125 -38.535156 20.453125 -38.660156 C 21.074219 -39.160156 21.699219 -39.65625 22.449219 -40.03125 C 23.195312 -40.40625 23.945312 -40.65625 24.691406 -40.78125 L 25.066406 -40.90625 L 25.316406 -40.90625 C 25.441406 -40.90625 25.691406 -41.027344 25.816406 -41.027344 C 26.1875 -41.027344 26.5625 -41.027344 26.8125 -41.027344 C 27.1875 -41.027344 27.4375 -40.90625 27.683594 -40.90625 C 27.933594 -40.78125 28.183594 -40.78125 28.433594 -40.65625 C 28.683594 -40.53125 28.808594 -40.40625 28.933594 -40.28125 C 29.058594 -40.03125 29.304688 -40.03125 29.429688 -39.78125 C 29.554688 -39.65625 29.679688 -39.65625 29.679688 -39.53125 C 29.804688 -39.285156 29.804688 -39.160156 29.929688 -39.035156 L 30.054688 -38.910156 C 30.054688 -38.785156 30.179688 -38.660156 30.179688 -38.660156 C 30.304688 -38.410156 30.304688 -38.285156 30.429688 -38.160156 C 30.554688 -37.910156 30.554688 -37.660156 30.679688 -37.539062 L 30.804688 -36.914062 C 30.929688 -36.414062 31.050781 -36.039062 31.175781 -35.542969 C 31.550781 -33.546875 31.675781 -31.300781 31.675781 -28.933594 C 31.675781 -26.6875 31.425781 -24.195312 31.300781 -21.699219 C 31.050781 -19.207031 30.804688 -16.585938 30.679688 -13.71875 L 42.648438 -13.21875 C 42.773438 -15.589844 43.023438 -18.082031 43.273438 -20.703125 C 43.398438 -23.445312 43.648438 -26.0625 43.648438 -28.933594 C 43.648438 -31.675781 43.523438 -34.667969 42.898438 -37.785156 Z M 42.898438 -37.785156 "/></g></g></g><g clip-path="url(#c254fa9a74)"><path fill="#ffffff" d="M 108.125 75 C 99.222656 75 92 82.21875 92 91.125 C 92 100.03125 99.222656 107.25 108.125 107.25 C 117.03125 107.25 124.25 100.03125 124.25 91.125 C 124.25 82.21875 117.03125 75 108.125 75 " fill-opacity="1" fill-rule="nonzero"/></g></svg>